<svg width="32" height="32" version="1.1" viewBox="0 0 32 32" xmlns="http://www.w3.org/2000/svg" xmlns:cc="http://creativecommons.org/ns#" xmlns:dc="http://purl.org/dc/elements/1.1/" xmlns:rdf="http://www.w3.org/1999/02/22-rdf-syntax-ns#">
 <title>elemental</title>
 <path d="m19.815 1.7301c-2.58 2.1868-5.2054 4.4095-7.1117 7.2308-1.5421-0.68689-2.4041-1.4374-3.9591-2.2561 0.10575 2.5182-1.0485 8.1467-1.0485 8.1467s-2.7364-1.1426-3.4544-1.7499c-1.5094 7.5704 1.5423 14.516 4.2174 15.512-2.4346-4.0904-1.9532-8.383-2.2783-11.922 0.70834 0.19817 3.2167 1.3552 3.2167 1.3552s1.5349-5.2704 1.7657-7.1474c0.35588-0.17673 2.2587 1.5699 2.2587 1.5699s4.4942-6.3785 4.9654-5.855c0.24957 3.0538 2.4639 5.9451 2.7831 8.7771 1.1229-0.43788 2.251-1.099 3.3739-1.5369 1.2859 2.0276 1.593 4.6848 0.87919 15.125 1.7074-3.9645 2.4989-7.1695 2.7194-10.871 0.15218-2.5549-0.68846-5.5109-1.2476-8.0962-1.0528 0.41053-2.6801 0.992-3.7329 1.4026-1.3899-3.5546-2.8209-6.3417-3.3472-9.6853z" stroke-width="1.1688"/>
 <path d="m16.166 12.71s-0.30557 1.4187-1.0714 2.7058c-1.5366 2.5826-1.9658 3.1325-2.7518 4.6113-0.91122 1.7142-2.0904 3.5459-1.7735 5.4203 0.29322 1.7348 1.575 3.5224 3.1994 4.1986 2.3952 0.99716 5.9631 0.89724 7.7171-1.0146 1.4273-1.5558 1.5035-4.605 0.2828-6.3275-0.93748-1.323-2.0922-3.0908-3.0321-4.7013-0.92852-1.5911-2.5703-4.8926-2.5703-4.8926zm-2.6097 11.247c0.32254 0.9525 0.60977 1.4545 1.168 1.9787 0.69835 0.65574 1.3022 1.036 2.5617 1.3025l-0.04756 1.4089c-0.84539-0.09897-2.7005-0.3863-3.6463-1.257-0.884-0.8138-1.4935-2.0246-1.4519-3.2991z" stroke-width="1.1688"/>
</svg>
